<svg xmlns="http://www.w3.org/2000/svg" viewBox="0 7.650000095367432 263.95001220703125 36.849998474121094" data-asc="0.878" width="263.95001220703125" height="36.849998474121094"><defs/><g><g><g transform="translate(0, 0)"><path fill="white" d="M23.20 43.90L23.20 30.85L11.05 30.85L11.05 43.90L0 43.90L0 9.50L11.05 9.50L11.05 22.05L23.20 22.05L23.20 9.50L34.25 9.50L34.25 43.90L23.20 43.90ZM54.60 16.90Q61.55 16.90 65.53 20.42Q69.50 23.95 69.50 30.70Q69.50 37.45 65.53 40.98Q61.55 44.50 54.60 44.50Q47.65 44.50 43.70 41Q39.75 37.50 39.75 30.70Q39.75 23.90 43.70 20.40Q47.65 16.90 54.60 16.90M54.60 23.65Q49.70 23.65 49.70 29.30L49.70 32.15Q49.70 37.75 54.60 37.75Q59.55 37.75 59.55 32.15L59.55 29.30Q59.55 23.65 54.60 23.65ZM109.35 16.90Q113.85 16.90 116.10 19.47Q118.35 22.05 118.35 26.80L118.35 43.90L108.40 43.90L108.40 28Q108.40 26.30 107.58 25.27Q106.75 24.25 105.25 24.25Q103.50 24.25 102.40 25.45Q101.30 26.65 101.30 28.40L101.30 43.90L91.35 43.90L91.35 28Q91.35 26.30 90.53 25.27Q89.70 24.25 88.20 24.25Q86.45 24.25 85.35 25.45Q84.25 26.65 84.25 28.40L84.25 43.90L74.30 43.90L74.30 17.50L82.45 17.50L83.10 21.45Q84.60 19.35 87.08 18.12Q89.55 16.90 92.30 16.90Q98.25 16.90 100.30 21.45Q101.85 19.35 104.28 18.12Q106.70 16.90 109.35 16.90ZM137.95 16.90Q145.20 16.90 149.03 20.30Q152.85 23.70 152.85 30.70L152.85 32.40L133.05 32.40Q133.05 35.25 134.33 36.70Q135.60 38.15 138.35 38.15Q140.85 38.15 142.03 37.10Q143.20 36.05 143.20 34.30L152.85 34.30Q152.85 39.10 149.20 41.80Q145.55 44.50 138.55 44.50Q131.20 44.50 127.15 41.07Q123.10 37.65 123.10 30.70Q123.10 23.90 127.05 20.40Q131 16.90 137.95 16.90M138.35 23.25Q133.65 23.25 133.10 27.70L142.80 27.70Q142.80 25.65 141.63 24.45Q140.45 23.25 138.35 23.25ZM181.25 9.50Q183.85 9.50 186.03 10.57Q188.20 11.65 189.48 13.60Q190.75 15.55 190.75 17.95Q190.75 24.30 185 25.95L185 26.15Q191.55 27.65 191.55 34.75Q191.55 37.45 190.23 39.52Q188.90 41.60 186.60 42.75Q184.30 43.90 181.55 43.90L158.35 43.90L158.35 9.50L181.25 9.50M169.40 22.90L177 22.90Q178.10 22.90 178.83 22.12Q179.55 21.35 179.55 20.20L179.55 19.70Q179.55 18.60 178.80 17.82Q178.05 17.05 177 17.05L169.40 17.05L169.40 22.90M169.40 35.90L177.80 35.90Q178.90 35.90 179.63 35.13Q180.35 34.35 180.35 33.20L180.35 32.70Q180.35 31.55 179.63 30.77Q178.90 30 177.80 30L169.40 30L169.40 35.90ZM196.90 14.40L196.90 7.65L206.85 7.65L206.85 14.40L196.90 14.40M196.90 43.90L196.90 17.50L206.85 17.50L206.85 43.90L196.90 43.90ZM230.80 17.50L230.80 24.25L225.20 24.25L225.20 34.30Q225.20 36.10 225.80 36.92Q226.40 37.75 228.00 37.75L230.80 37.75L230.80 43.60Q229.60 44 227.70 44.25Q225.80 44.50 224.40 44.50Q220.00 44.50 217.63 42.90Q215.25 41.30 215.25 37.45L215.25 24.25L211.55 24.25L211.55 17.50L215.65 17.50L217.80 9.50L225.20 9.50L225.20 17.50L230.80 17.50ZM249.05 16.90Q256.30 16.90 260.13 20.30Q263.95 23.70 263.95 30.70L263.95 32.40L244.15 32.40Q244.15 35.25 245.43 36.70Q246.70 38.15 249.45 38.15Q251.95 38.15 253.13 37.10Q254.30 36.05 254.30 34.30L263.95 34.30Q263.95 39.10 260.30 41.80Q256.65 44.50 249.65 44.50Q242.30 44.50 238.25 41.07Q234.20 37.65 234.20 30.70Q234.20 23.90 238.15 20.40Q242.10 16.90 249.05 16.90M249.45 23.25Q244.75 23.25 244.20 27.70L253.90 27.70Q253.90 25.65 252.73 24.45Q251.55 23.25 249.45 23.25Z"/></g><g transform="translate(0, 60.5)"><path fill="white" d=""/></g></g></g></svg>